<svg width="20" height="20" viewBox="0 0 20 20" fill="none" xmlns="http://www.w3.org/2000/svg">
<path d="M7.5 1.66663C7.96024 1.66663 8.33333 2.03972 8.33333 2.49996V3.33329H11.6667V2.49996C11.6667 2.03972 12.0398 1.66663 12.5 1.66663C12.9602 1.66663 13.3333 2.03972 13.3333 2.49996V3.33329H15.8333C16.7538 3.33329 17.5 4.07948 17.5 4.99996V15.8333C17.5 16.7538 16.7538 17.5 15.8333 17.5H4.16667C3.24619 17.5 2.5 16.7538 2.5 15.8333V4.99996C2.5 4.07948 3.24619 3.33329 4.16667 3.33329H6.66667V2.49996C6.66667 2.03972 7.03976 1.66663 7.5 1.66663ZM6.66667 4.99996H4.16667V7.49996H15.8333V4.99996H13.3333V5.83329C13.3333 6.29353 12.9602 6.66663 12.5 6.66663C12.0398 6.66663 11.6667 6.29353 11.6667 5.83329V4.99996H8.33333V5.83329C8.33333 6.29353 7.96024 6.66663 7.5 6.66663C7.03976 6.66663 6.66667 6.29353 6.66667 5.83329V4.99996ZM15.8333 9.16663H4.16667V15.8333H15.8333V9.16663Z" fill="#2F4656"/>
</svg>
