<svg width="570" height="390" viewBox="0 0 570 390" fill="none" xmlns="http://www.w3.org/2000/svg">
<path d="M6.07568 70.4173C3.30061 45.1603 24.1227 23.3289 49.4795 24.9566C107.919 28.7081 206.631 33.8065 278.893 31.1136C351.888 28.3934 451.205 15.7364 508.964 7.65415C533.557 4.21288 555.568 23.4979 555.145 48.3265L552.814 185.02L565.312 321.16C567.582 345.888 547.067 366.758 522.287 365.157C464.086 361.396 364.103 356.166 291.107 358.886C218.845 361.579 120.787 374.01 62.7886 382.101C37.6233 385.611 15.2341 365.39 16.1217 339.997C17.4801 301.131 18.7403 246.69 17.186 204.98C15.6316 163.27 10.3231 109.074 6.07568 70.4173Z" fill="white"/>
<path d="M10.9085 60.1168C9.07589 34.774 30.6966 13.7331 55.9751 16.304C114.235 22.2292 212.688 31 285 31C358.046 31 457.765 22.0503 515.785 16.1246C540.489 13.6015 561.767 33.6928 560.419 58.4885L553 195L560.419 331.511C561.767 356.307 540.489 376.398 515.785 373.875C457.765 367.95 358.046 359 285 359C212.688 359 114.235 367.771 55.9751 373.696C30.6965 376.267 9.07589 355.226 10.9085 329.883C13.7134 291.095 17 236.739 17 195C17 153.261 13.7134 98.9052 10.9085 60.1168Z" fill="#F6553F"/>
</svg>
