<svg width="48" height="48" viewBox="0 0 48 48" fill="none" xmlns="http://www.w3.org/2000/svg">
<path d="M24 47.25C36.8437 47.25 47.25 36.8438 47.25 24C47.25 11.1563 36.8437 0.750001 24 0.750002C11.1562 0.750003 0.749996 11.1563 0.749998 24C0.749999 36.8438 11.1562 47.25 24 47.25ZM13.4062 25.5938C12.4687 24.6563 12.4687 23.25 13.4062 22.4063L26.0625 9.65625C26.9062 8.8125 28.4062 8.8125 29.25 9.65625L30.8437 11.25C31.6875 12.0938 31.6875 13.5938 30.8437 14.4375L21.2812 24L30.8437 33.4688C31.6875 34.3125 31.6875 35.8125 30.8437 36.6563L29.25 38.25C28.4062 39.0938 26.9062 39.0938 26.0625 38.25L13.4062 25.5938Z" fill="#BEBEBE"/>
</svg>
