<svg width="17" height="13" viewBox="0 0 17 13" fill="none" xmlns="http://www.w3.org/2000/svg">
<path d="M16.3124 5.21875H16.2812C16.5312 5.4375 16.6562 5.6875 16.6562 6C16.6562 6.31252 16.5312 6.59372 16.3124 6.78122L10.2812 11.7812C10.0938 11.9687 9.84375 12.0312 9.59375 12C9.34375 12 9.12495 11.875 8.93745 11.6875C8.74995 11.5 8.65625 11.2812 8.65625 11V1C8.65625 0.75 8.74995 0.5 8.93745 0.3125C9.12495 0.125 9.34375 0.03125 9.59375 0C9.84375 0 10.0937 0.0625 10.3124 0.21875L16.3124 5.21875ZM8.31245 5.21875H8.28125C8.53125 5.4375 8.65625 5.6875 8.65625 6C8.65625 6.31252 8.53125 6.59372 8.31245 6.78122L2.31245 11.7812C2.09375 11.9687 1.84375 12.0312 1.59375 12C1.34375 12 1.12495 11.875 0.937447 11.6875C0.749947 11.5 0.65625 11.2812 0.65625 11V1C0.65625 0.75 0.749947 0.5 0.937447 0.3125C1.12495 0.125 1.34375 0.03125 1.59375 0C1.84375 0 2.09375 0.0625 2.31245 0.21875L8.31245 5.21875Z" fill="white"/>
</svg>
