<svg width="1920" height="521" viewBox="0 0 1920 521" fill="none" xmlns="http://www.w3.org/2000/svg">
<path d="M300.5 185C320 220.363 361 222.5 361 222.5C323 222.5 340 249.363 340 249.363C327 211.863 284 217.863 284 217.863C305 217.863 317.5 210.863 300.5 185Z" stroke="#444444" stroke-opacity="0.4" stroke-width="1.4"/>
<path d="M1680.5 200C1700 235.363 1741 237.5 1741 237.5C1703 237.5 1720 264.363 1720 264.363C1707 226.863 1664 232.863 1664 232.863C1685 232.863 1697.5 225.863 1680.5 200Z" stroke="#444444" stroke-opacity="0.4" stroke-width="1.4"/>
<path d="M562.938 139.659C597.273 192.459 637.813 185.343 637.813 185.343C601.108 195.178 629.303 234.721 629.303 234.721C600.309 176.742 561.404 197.687 561.404 197.687C581.689 192.251 590.695 177.565 562.938 139.659Z" stroke="#444444" stroke-opacity="0.4" stroke-width="1.4"/>
<path d="M1426.41 134.207C1399.85 202.467 1430.18 230.389 1430.18 230.389C1399.71 207.681 1381.29 260.84 1381.29 260.84C1415.61 193.043 1373.97 176.951 1373.97 176.951C1390.81 189.501 1409.18 185.766 1426.41 134.207Z" stroke="#444444" stroke-opacity="0.4" stroke-width="1.4"/>
<path opacity="0.4" fill-rule="evenodd" clip-rule="evenodd" d="M1309.61 89.3375C1297.48 82.5008 1288.45 71.9544 1280.7 60.593C1276.82 54.9107 1273.26 49.0035 1269.78 43.2405L1269.66 43.0433C1266.22 37.3403 1262.87 31.7863 1259.37 26.6866C1252.29 16.3529 1244.73 8.04318 1234.91 4.24388C1225.14 0.463181 1212.91 1.07272 1196.33 9.06892C1171.13 21.2212 1146.94 40.1857 1124.95 57.4229L1124.95 57.4234L1124.94 57.4268C1117.82 63.0064 1110.94 68.4049 1104.32 73.3328C1090.85 83.3691 1078.45 91.482 1067.59 95.0305C1062.15 96.8093 1057.02 97.4636 1052.3 96.5928C1047.56 95.7182 1043.3 93.3186 1039.6 89.1287C1039.07 88.533 1038.55 87.943 1038.03 87.3589C1024.52 72.0797 1014.52 60.757 1004.19 53.1583C993.535 45.3207 982.545 41.453 967 41.453V39.453C982.959 39.453 994.367 43.4496 1005.37 51.5474C1015.88 59.2757 1026.02 70.7468 1039.42 85.9134L1039.43 85.9153L1041.09 87.8038C1044.53 91.6851 1048.39 93.8386 1052.66 94.626C1056.95 95.4173 1061.72 94.8428 1066.97 93.1293C1077.49 89.6931 1089.65 81.7671 1103.13 71.7289C1109.66 66.8627 1116.49 61.5068 1123.57 55.9543C1145.6 38.6896 1170.05 19.5236 1195.46 7.26746C1212.35 -0.878741 1225.17 -1.66614 1235.63 2.37859C1246.04 6.40474 1253.89 15.1428 1261.02 25.5563C1264.55 30.7051 1267.93 36.3025 1271.36 41.9879L1271.49 42.2072C1274.97 47.977 1278.51 53.837 1282.35 59.4661C1290.03 70.7273 1298.85 80.9798 1310.59 87.5951C1322.4 94.2493 1332.14 96.5302 1341.43 95.7993C1350.74 95.0661 1359.71 91.2958 1369.98 85.6248C1375.1 82.7988 1380.53 79.5052 1386.46 75.905C1404.3 65.0857 1426.7 51.4982 1458.9 39.5158C1480.44 31.5028 1495.98 30.7905 1508.51 35.0701C1521.02 39.3432 1530.33 48.5346 1539.53 59.8985C1542.81 63.9553 1546.08 68.2956 1549.49 72.8095L1549.49 72.8114C1565.2 93.6416 1583.7 118.168 1618.7 135.584C1661.53 156.906 1679.41 160.747 1697.27 155.236C1705.5 152.698 1713.75 148.169 1724.47 142.281C1725.5 141.717 1726.55 141.139 1727.63 140.55C1739.89 133.836 1755.28 125.64 1776.87 116.926C1811.81 102.825 1843.18 115.749 1868.05 137.402C1892.91 159.042 1911.44 189.519 1920.91 210.993L1921 211.186V211.397V521H1919V211.608C1909.58 190.323 1891.23 160.238 1866.73 138.91C1842.18 117.53 1811.6 105.068 1777.62 118.781C1756.14 127.452 1740.82 135.605 1728.59 142.304C1727.5 142.901 1726.43 143.486 1725.39 144.06C1714.73 149.913 1706.29 154.545 1697.86 157.147C1679.17 162.916 1660.62 158.685 1617.8 137.375C1582.35 119.729 1563.54 94.7749 1547.82 73.9264C1544.44 69.4419 1541.2 65.1475 1537.97 61.1565C1528.83 49.859 1519.81 41.0454 1507.86 36.9627C1495.93 32.8866 1480.89 33.4677 1459.6 41.3902C1427.6 53.2992 1405.43 66.7432 1387.61 77.5514C1381.64 81.1748 1376.15 84.5019 1370.95 87.3756C1360.6 93.0871 1351.33 97.0258 1341.58 97.7931C1331.81 98.5626 1321.67 96.1352 1309.61 89.3375ZM610.579 89.1698C622.716 82.3462 631.746 71.82 639.497 60.4803C643.373 54.8089 646.944 48.913 650.422 43.1611L650.54 42.9671C653.982 37.274 657.335 31.7299 660.831 26.6392C667.912 16.3257 675.478 8.03182 685.302 4.23971C695.079 0.465976 707.307 1.07459 723.893 9.05551C749.1 21.1846 773.302 40.1128 795.3 57.3169L795.301 57.3172L795.304 57.3199C802.425 62.889 809.315 68.2773 815.933 73.1959C829.411 83.2129 841.807 91.3101 852.673 94.8517C858.12 96.627 863.247 97.28 867.968 96.4109C872.711 95.5381 876.968 93.1434 880.675 88.9614C909.144 56.84 934.895 41.3771 966 41.3771V39.3771C934.078 39.3771 907.827 55.3107 879.178 87.6348C875.745 91.5084 871.877 93.658 867.606 94.444C863.315 95.2338 858.54 94.6604 853.292 92.9501C842.77 89.5204 830.607 81.6095 817.126 71.5906C810.592 66.7345 803.758 61.3896 796.673 55.8485L796.671 55.8464C774.64 38.6148 750.182 19.4858 724.76 7.25329C707.863 -0.877138 695.04 -1.66278 684.582 2.37388C674.171 6.39216 666.318 15.1134 659.182 25.5071C655.653 30.6466 652.274 36.2338 648.842 41.9087L648.711 42.1261C645.228 47.8848 641.686 53.7335 637.846 59.3517C630.163 70.5911 621.343 80.8238 609.599 87.4264C597.785 94.0679 588.042 96.3446 578.753 95.615C569.437 94.8832 560.463 91.12 550.19 85.4599C545.071 82.6396 539.64 79.3527 533.703 75.7598L533.702 75.7588C515.859 64.9603 493.451 51.399 461.238 39.4396C439.697 31.4422 424.15 30.7314 411.62 35.0026C399.108 39.2673 389.788 48.4409 380.59 59.7832C377.306 63.8327 374.031 68.1654 370.624 72.6712C354.907 93.4613 336.401 117.94 301.399 135.323C258.548 156.604 240.663 160.438 222.799 154.938C214.57 152.404 206.318 147.884 195.591 142.008C194.561 141.444 193.509 140.868 192.432 140.279C180.162 133.578 164.766 125.398 143.171 116.701C108.222 102.627 76.8498 115.526 51.9699 137.137C27.1041 158.736 8.56269 189.154 -0.914582 210.588L-1 210.781V210.992V520V521H0H930.644V519H1V211.204C10.424 189.96 28.7759 159.933 53.2815 138.647C77.8472 117.309 108.436 104.869 142.424 118.557C163.914 127.211 179.232 135.349 191.474 142.035C192.564 142.63 193.63 143.214 194.675 143.787L194.676 143.787C205.339 149.629 213.776 154.252 222.211 156.849C240.909 162.606 259.461 158.384 302.289 137.115C337.751 119.503 356.57 94.5966 372.293 73.7882L372.293 73.7874C375.675 69.3119 378.914 65.0259 382.144 61.0429C391.288 49.7673 400.31 40.9706 412.265 36.8956C424.201 32.8271 439.244 33.4072 460.542 41.3146C492.557 53.2007 514.73 66.6189 532.556 77.4063C538.532 81.0227 544.019 84.3434 549.225 87.2117C559.572 92.9122 568.848 96.8431 578.597 97.6089C588.373 98.3768 598.511 95.9544 610.579 89.1698Z" fill="black"/>
</svg>
