<svg width="635" height="416" viewBox="0 0 635 416" fill="none" xmlns="http://www.w3.org/2000/svg">
<path d="M0.951172 45.104C-0.92611 19.764 20.7349 -1.25696 46.0096 1.35567C111.87 8.16368 230.633 19.0435 317 19.0435C404.152 19.0435 524.291 7.96503 589.773 1.17108C614.474 -1.39169 635.768 18.6948 634.421 43.4915L625.489 208L634.421 372.509C635.768 397.305 614.474 417.392 589.773 414.829C524.291 408.035 404.152 396.957 317 396.957C230.633 396.957 111.87 407.836 46.0096 414.644C20.7349 417.257 -0.926106 396.236 0.951175 370.896C4.28241 325.93 8.51079 258.841 8.51079 208C8.51079 157.159 4.28241 90.0697 0.951172 45.104Z" fill="white"/>
</svg>
