<svg width="48" height="48" viewBox="0 0 48 48" fill="none" xmlns="http://www.w3.org/2000/svg">
<path d="M24 0.75C11.1562 0.75 0.75 11.1562 0.75 24C0.75 36.8438 11.1562 47.25 24 47.25C36.8438 47.25 47.25 36.8438 47.25 24C47.25 11.1562 36.8438 0.75 24 0.75ZM34.5938 22.4062C35.5312 23.3438 35.5312 24.75 34.5938 25.5938L21.9375 38.3438C21.0938 39.1875 19.5938 39.1875 18.75 38.3438L17.1562 36.75C16.3125 35.9062 16.3125 34.4062 17.1562 33.5625L26.7188 24L17.1562 14.5312C16.3125 13.6875 16.3125 12.1875 17.1562 11.3438L18.75 9.75C19.5938 8.90625 21.0938 8.90625 21.9375 9.75L34.5938 22.4062Z" fill="#F6553F"/>
</svg>
